<svg xmlns="http://www.w3.org/2000/svg" width="33" height="33" viewBox="0 0 33 33">
    <path fill="#4A4A4A" fill-rule="evenodd" d="M29.7 0H3.3A3.31 3.31 0 0 0 0 3.3v26.4A3.31 3.31 0 0 0 3.3 33h26.4a3.31 3.31 0 0 0 3.3-3.3V3.3A3.31 3.31 0 0 0 29.7 0zm-3.795 12.045c-.165 7.59-4.95 12.87-12.21 13.2-2.97.165-5.115-.825-7.095-1.98 2.145.33 4.95-.495 6.435-1.815-2.145-.165-3.465-1.32-4.125-3.135.66.165 1.32 0 1.815 0-1.98-.66-3.3-1.815-3.465-4.455.495.33 1.155.495 1.815.495-1.485-.825-2.475-3.96-1.32-5.94 2.145 2.31 4.785 4.29 9.075 4.62-1.155-4.62 5.115-7.095 7.59-3.96 1.155-.165 1.98-.66 2.805-.99-.33 1.155-.99 1.815-1.815 2.475.825-.165 1.65-.33 2.31-.66-.165.825-.99 1.485-1.815 2.145z"/>
</svg>
